<?xml version="1.0" encoding="utf-8"?>
<!-- Generator: Adobe Illustrator 26.2.1, SVG Export Plug-In . SVG Version: 6.00 Build 0)  -->
<svg version="1.1" id="Capa_1" xmlns="http://www.w3.org/2000/svg" xmlns:xlink="http://www.w3.org/1999/xlink" x="0px" y="0px"
	 viewBox="0 0 82.38 83.4" style="enable-background:new 0 0 82.38 83.4;" xml:space="preserve">
<style type="text/css">
	.st0{fill:#ED6A49;}
	.st1{fill:#FFFFFF;}
</style>
<g>
	<circle class="st0" cx="41.19" cy="41.7" r="38.47"/>
	<path class="st1" d="M55.2,33.88c-1.09,1.09-2.17,2.19-3.24,3.31c-0.25,0.25-0.48,0.39-0.89,0.25c-2.16-0.74-4.5-1.23-6.95-1.45
		c-2.71-0.25-4.93-0.2-6.98,0.17c-1.61,0.28-3.24,0.67-4.81,1.05l-1,0.24c-0.37,0.08-0.58,0.03-0.83-0.23l-0.84-0.87
		c-0.95-0.98-1.92-1.99-2.93-2.94c-0.23-0.22-0.48-0.42-0.73-0.62c-0.06-0.05-0.13-0.09-0.2-0.14l-0.32,0.48l0.14-0.6
		c-0.14-0.1-0.27-0.19-0.41-0.28c-0.09-0.06-0.18-0.11-0.27-0.16l-0.27,0.5l0.09-0.6c-0.13-0.07-0.25-0.14-0.38-0.2
		c-0.11-0.06-0.23-0.11-0.35-0.16l-0.22,0.53l0.09-0.59c-0.13-0.06-0.26-0.11-0.39-0.16c-0.16-0.06-0.32-0.11-0.48-0.16
		c-0.14-0.05-0.28-0.09-0.43-0.13c-0.17-0.04-0.34-0.08-0.5-0.12c-0.14-0.03-0.29-0.06-0.44-0.09c-0.17-0.03-0.34-0.05-0.51-0.07
		c-0.15-0.02-0.31-0.03-0.46-0.04c-0.16-0.01-0.33-0.02-0.5-0.02c-0.26-0.01-0.52-0.01-0.78,0c-2.75,0.15-5.32,1.39-7.06,3.41
		c-3.49,4.06-3.39,9.63,0.23,13.56c0.54,0.58,1.09,1.15,1.6,1.67l0.02,0.02c0,0,2.28,2.09,2.99,2.68l0.5,0.41l0.35-0.54
		c0.18-0.28,0.55-0.77,0.83-1.15l0.27-0.36c4.3-5.87,10.28-9.46,17.75-10.66c8.03-1.3,15.31,0.61,21.63,5.65
		c2.3,1.83,4.32,4.12,5.84,6.61l0.38,0.62l0.51-0.52c0.57-0.57,2.8-2.55,2.85-2.6l0.28-0.29c0.39-0.41,0.79-0.81,1.19-1.22
		c1.7-1.72,2.66-3.65,2.94-5.89c0.43-3.45-0.61-6.37-3.08-8.68C65.27,29.62,59.29,29.78,55.2,33.88z M65.32,47.06l-0.07,0.06
		l-3.13-3.34l0.88-0.86c0.57-0.55,1.13-1.08,1.67-1.64c0.6-0.62,0.71-1.43,0.29-2.15c-0.4-0.71-1.19-1.04-1.95-0.82
		c-0.41,0.12-0.79,0.42-1.04,0.65c-0.64,0.6-1.25,1.23-1.86,1.85l-0.75,0.75l-4.27-2.57l0.09-0.08v0c0.39-0.37,0.76-0.75,1.14-1.13
		c0.8-0.81,1.63-1.65,2.56-2.31c1.77-1.26,4.05-1.5,6.11-0.65c2.08,0.86,3.55,2.67,3.93,4.85c0.37,2.13-0.18,4.05-1.59,5.55
		c-0.42,0.45-0.9,0.87-1.37,1.28C65.75,46.68,65.54,46.87,65.32,47.06z M18.5,38.31c-0.61,0.17-1.05,0.64-1.21,1.27
		c-0.17,0.67,0.01,1.26,0.57,1.81l2.43,2.41l-3.22,3.44l-0.61-0.62c-1.29-1.29-2.5-2.5-2.93-4.4c-0.4-1.78,0.02-3.69,1.16-5.23
		c1.13-1.53,2.8-2.49,4.6-2.63c0.2-0.02,0.4-0.02,0.6-0.02c1.85,0,3.47,0.69,4.81,2.04c0.56,0.57,1.15,1.12,1.75,1.68l0.93,0.88
		l-4.38,2.64l-0.87-0.91c-0.61-0.64-1.22-1.29-1.87-1.9C19.77,38.3,19.11,38.13,18.5,38.31z"/>
</g>
</svg>
