<?xml version="1.0" encoding="utf-8"?>
<!-- Generator: Adobe Illustrator 26.2.1, SVG Export Plug-In . SVG Version: 6.00 Build 0)  -->
<svg version="1.1" id="Capa_1" xmlns="http://www.w3.org/2000/svg" xmlns:xlink="http://www.w3.org/1999/xlink" x="0px" y="0px"
	 viewBox="0 0 82.4 83.4" style="enable-background:new 0 0 82.4 83.4;" xml:space="preserve">
<style type="text/css">
	.st0{fill:#DEB887;}
	.st1{fill:#FFFFFF;}
</style>
<circle class="st0" cx="41.2" cy="41.7" r="38.5"/>
<path class="st1" d="M53.1,35c-0.9,0.9-1.9,1.9-2.8,2.8c-0.2,0.2-0.4,0.3-0.8,0.2c-1.8-0.6-3.8-1-5.9-1.2c-2.3-0.2-4.2-0.2-6,0.1
	c-1.4,0.2-2.8,0.6-4.1,0.9l-0.9,0.2c-0.3,0.1-0.5,0-0.7-0.2l-0.7-0.7c-0.8-0.8-1.6-1.7-2.5-2.5c-0.2-0.2-0.4-0.4-0.6-0.5
	c-0.1,0-0.1-0.1-0.2-0.1l-0.3,0.4l0.1-0.5c-0.1-0.1-0.2-0.2-0.3-0.2c-0.1-0.1-0.2-0.1-0.2-0.1l-0.2,0.4l0.1-0.5
	c-0.1-0.1-0.2-0.1-0.3-0.2c-0.1-0.1-0.2-0.1-0.3-0.1l-0.2,0.5l0.1-0.5c-0.1-0.1-0.2-0.1-0.3-0.1c-0.1-0.1-0.3-0.1-0.4-0.1
	c-0.1,0-0.2-0.1-0.4-0.1c-0.1,0-0.3-0.1-0.4-0.1c-0.1,0-0.2-0.1-0.4-0.1c-0.1,0-0.3,0-0.4-0.1c-0.1,0-0.3,0-0.4,0
	c-0.1,0-0.3,0-0.4,0c-0.2,0-0.4,0-0.7,0c-2.3,0.1-4.5,1.2-6,2.9c-3,3.5-2.9,8.2,0.2,11.6c0.5,0.5,0.9,1,1.4,1.4l0,0
	c0,0,1.9,1.8,2.6,2.3l0.4,0.3l0.3-0.5c0.2-0.2,0.5-0.7,0.7-1l0.2-0.3c3.7-5,8.8-8.1,15.1-9.1c6.9-1.1,13.1,0.5,18.5,4.8
	c2,1.6,3.7,3.5,5,5.6l0.3,0.5l0.4-0.4c0.5-0.5,2.4-2.2,2.4-2.2l0.2-0.2c0.3-0.3,0.7-0.7,1-1c1.5-1.5,2.3-3.1,2.5-5
	c0.4-2.9-0.5-5.4-2.6-7.4C61.7,31.4,56.6,31.5,53.1,35z M61.8,46.3L61.8,46.3L59,43.5l0.8-0.7c0.5-0.5,1-0.9,1.4-1.4
	c0.5-0.5,0.6-1.2,0.2-1.8c-0.3-0.6-1-0.9-1.7-0.7c-0.3,0.1-0.7,0.4-0.9,0.6c-0.5,0.5-1.1,1-1.6,1.6l-0.6,0.6L53,39.4l0.1-0.1l0,0
	c0.3-0.3,0.6-0.6,1-1c0.7-0.7,1.4-1.4,2.2-2c1.5-1.1,3.5-1.3,5.2-0.6c1.8,0.7,3,2.3,3.4,4.1c0.3,1.8-0.2,3.5-1.4,4.7
	c-0.4,0.4-0.8,0.7-1.2,1.1C62.1,46,62,46.1,61.8,46.3z M21.8,38.8c-0.5,0.1-0.9,0.5-1,1.1c-0.1,0.6,0,1.1,0.5,1.5l2.1,2.1l-2.7,2.9
	l-0.5-0.5c-1.1-1.1-2.1-2.1-2.5-3.8c-0.3-1.5,0-3.1,1-4.5c1-1.3,2.4-2.1,3.9-2.2c0.2,0,0.3,0,0.5,0c1.6,0,3,0.6,4.1,1.7
	c0.5,0.5,1,1,1.5,1.4l0.8,0.8l-3.7,2.3l-0.7-0.8c-0.5-0.5-1-1.1-1.6-1.6C22.9,38.8,22.3,38.7,21.8,38.8z"/>
</svg>
